<svg width="10337" height="3328" viewBox="0 0 10337 3328" fill="none" xmlns="http://www.w3.org/2000/svg">
<ellipse cx="1663.74" cy="1663.67" rx="1663.74" ry="1663.67" fill="white"/>
<path d="M1666.15 1650.73L2774.09 2736.52L1279.76 3153.09L1666.15 1650.73Z" fill="#0DCAF3"/>
<path fill-rule="evenodd" clip-rule="evenodd" d="M569.79 419.186C852.836 164.091 1225.93 6.40632 1636.85 -0.000541687C1636.85 42.7486 1774.28 119.747 1970 229.407C2000.02 246.23 2031.42 263.821 2063.9 282.175L1664.66 1657.54L1662.92 1657.57L569.79 419.186ZM30.5145 1683.02C30.2558 1674.62 30.0604 1666.2 29.9288 1657.76C22.2792 1167.17 231.855 723.749 569.79 419.186L565.466 414.286C289.225 658.104 101.935 986.877 33.09 1348.83C11.9934 1459.75 2.38652 1571.85 4.02678 1683.44L-3.8147e-05 1683.5L0.0155487 1684.5L4.04178 1684.44C7.90117 1936.65 69.2199 2186.23 185.198 2413.56C352.639 2741.76 624.496 3004.94 957.959 3161.66C1291.42 3318.39 1667.54 3359.74 2027.09 3279.22C2386.65 3198.7 2709.2 3000.87 2943.96 2716.89C3178.71 2432.92 3312.34 2078.92 3323.79 1710.66C3335.25 1342.4 3223.88 980.783 3007.22 682.769C2790.56 384.754 2480.92 167.269 2127.07 64.5617L2063.9 282.175C2551.99 557.965 3285.31 1006.01 3294.68 1606.86C3294.81 1615.29 3294.88 1623.72 3294.88 1632.13L1664.66 1657.54L1664.37 1658.55L1663.79 1658.56L1662.92 1657.57L30.5145 1683.02ZM30.5455 1684.02L1663.79 1658.56L1664.22 1659.05L1664.37 1658.55L3294.88 1633.13C3294.72 2522.73 2580.52 3250.69 1687.76 3264.61C794.993 3278.53 58.4457 2573.19 30.5455 1684.02ZM30.5455 1684.02L30.5145 1683.02L4.02678 1683.44C4.03168 1683.77 4.03668 1684.1 4.04178 1684.44L30.5455 1684.02ZM3294.88 1633.13V1632.13L3310.24 1631.89L3310.25 1632.89L3294.88 1633.13Z" fill="#6BE4FF"/>
<path d="M3672.6 2000.24L3763.16 1454.79H3947.19C3982.71 1454.79 4011.29 1461 4032.95 1473.43C4054.62 1485.86 4069.53 1502.82 4077.7 1524.3C4086.04 1545.79 4087.82 1570.2 4083.03 1597.54C4079.3 1620.27 4072.28 1639.71 4061.99 1655.87C4051.69 1671.85 4039.17 1684.9 4024.43 1695.02C4009.87 1704.96 3994.16 1712.16 3977.29 1716.59L3976.49 1720.86C3993.89 1722.1 4009.96 1728.31 4024.7 1739.5C4039.44 1750.51 4050.44 1765.96 4057.72 1785.84C4065.18 1805.73 4066.69 1829.52 4062.25 1857.22C4057.63 1884.74 4047.34 1909.33 4031.36 1930.99C4015.55 1952.48 3993.89 1969.44 3966.37 1981.86C3939.03 1994.12 3905.82 2000.24 3866.76 2000.24H3672.6ZM3729.87 1955.5H3874.22C3916.3 1955.5 3948.97 1946.18 3972.23 1927.53C3995.49 1908.89 4009.61 1885.45 4014.58 1857.22C4017.95 1836.45 4016 1817.62 4008.72 1800.76C4001.44 1783.71 3989.54 1770.22 3973.03 1760.27C3956.52 1750.33 3936.01 1745.36 3911.51 1745.36H3765.02L3729.87 1955.5ZM3772.48 1701.15H3911.24C3932.72 1701.15 3952.25 1696.71 3969.83 1687.83C3987.41 1678.95 4001.97 1666.7 4013.51 1651.08C4025.05 1635.45 4032.42 1617.61 4035.62 1597.54C4040.59 1568.6 4035.17 1545.08 4019.37 1526.96C4003.75 1508.68 3977.2 1499.53 3939.74 1499.53H3805.5L3772.48 1701.15ZM4159 2000.24H4106.8L4395.77 1454.79H4449.04L4556.9 2000.24H4504.7L4413.88 1519.51H4410.42L4159 2000.24ZM4231.44 1791.17H4502.04L4494.58 1835.91H4223.98L4231.44 1791.17ZM4636.74 1499.53L4644.19 1454.79H5039.7L5032.24 1499.53H4859.39L4776.3 2000.24H4726.49L4809.59 1499.53H4636.74ZM5111.35 1499.53L5118.8 1454.79H5514.31L5506.85 1499.53H5334L5250.91 2000.24H5201.1L5284.2 1499.53H5111.35ZM6005.1 1730.44C5995.69 1786.73 5977.58 1835.65 5950.77 1877.2C5923.96 1918.74 5891.2 1950.88 5852.49 1973.61C5813.78 1996.34 5771.7 2007.7 5726.25 2007.7C5679.55 2007.7 5640.13 1996.07 5607.99 1972.81C5576.03 1949.37 5553.4 1916.52 5540.08 1874.27C5526.76 1831.83 5524.81 1781.94 5534.22 1724.58C5543.63 1668.3 5561.74 1619.38 5588.55 1577.83C5615.36 1536.29 5648.21 1504.15 5687.1 1481.42C5725.98 1458.69 5768.24 1447.33 5813.87 1447.33C5860.04 1447.33 5899.1 1458.96 5931.06 1482.22C5963.02 1505.48 5985.75 1538.33 5999.24 1580.76C6012.74 1623.02 6014.69 1672.92 6005.1 1730.44ZM5957.43 1724.58C5965.59 1675.93 5964.53 1634.47 5954.23 1600.21C5944.11 1565.94 5926.71 1539.75 5902.03 1521.64C5877.35 1503.35 5847.43 1494.2 5812.27 1494.2C5775.87 1494.2 5741.69 1503.62 5709.73 1522.44C5677.77 1541.08 5650.52 1568.07 5627.97 1603.4C5605.42 1638.56 5589.97 1680.91 5581.63 1730.44C5573.64 1778.92 5574.7 1820.38 5584.82 1854.82C5594.94 1889.09 5612.34 1915.37 5637.03 1933.66C5661.88 1951.77 5691.98 1960.82 5727.31 1960.82C5763.89 1960.82 5798.16 1951.41 5830.12 1932.59C5862.08 1913.77 5889.24 1886.78 5911.62 1851.63C5934.17 1816.29 5949.44 1773.95 5957.43 1724.58ZM6534.91 1454.79H6584.71L6525.05 1815.94C6518.84 1853.05 6504.63 1886.25 6482.44 1915.55C6460.25 1944.67 6432.19 1967.66 6398.28 1984.53C6364.54 2001.22 6327.17 2009.56 6286.15 2009.56C6245.31 2009.56 6210.78 2001.13 6182.55 1984.26C6154.31 1967.39 6133.9 1944.4 6121.29 1915.28C6108.68 1886.16 6105.49 1853.05 6111.7 1815.94L6171.36 1454.79H6221.16L6161.77 1812.48C6157.16 1841.42 6159.38 1867.25 6168.43 1889.98C6177.49 1912.53 6192.58 1930.28 6213.71 1943.25C6235.01 1956.21 6261.47 1962.69 6293.08 1962.69C6324.86 1962.69 6353.62 1956.21 6379.37 1943.25C6405.29 1930.28 6426.6 1912.53 6443.29 1889.98C6460.16 1867.25 6470.99 1841.42 6475.78 1812.48L6534.91 1454.79Z" fill="white"/>
<path d="M6660.48 1454.79H6760.36L6934.01 1878.79H6940.4L7114.05 1454.79H7213.93V2000.24H7135.63V1605.53H7130.57L6969.7 1999.44H6904.71L6743.85 1605.27H6738.79V2000.24H6660.48V1454.79ZM7379.66 2000.24H7292.3L7488.59 1454.79H7583.67L7779.96 2000.24H7692.6L7538.39 1553.86H7534.13L7379.66 2000.24ZM7394.3 1786.64H7677.69V1855.89H7394.3V1786.64ZM8298.98 1454.79V2000.24H8223.34L7946.08 1600.21H7941.02V2000.24H7858.73V1454.79H7934.9L8212.42 1855.36H8217.48V1454.79H8298.98ZM8465.11 2000.24H8377.75L8574.04 1454.79H8669.12L8865.41 2000.24H8778.05L8623.84 1553.86H8619.58L8465.11 2000.24ZM8479.75 1786.64H8763.13V1855.89H8479.75V1786.64ZM9287.68 1627.11C9282.53 1610.95 9275.61 1596.48 9266.91 1583.69C9258.39 1570.73 9248.18 1559.72 9236.28 1550.67C9224.38 1541.44 9210.8 1534.42 9195.53 1529.63C9180.44 1524.83 9163.84 1522.44 9145.73 1522.44C9115.01 1522.44 9087.31 1530.34 9062.63 1546.14C9037.95 1561.94 9018.42 1585.11 9004.04 1615.65C8989.83 1646.02 8982.73 1683.21 8982.73 1727.25C8982.73 1771.46 8989.92 1808.84 9004.3 1839.38C9018.68 1869.92 9038.39 1893.09 9063.43 1908.89C9088.46 1924.69 9116.96 1932.59 9148.92 1932.59C9178.57 1932.59 9204.41 1926.56 9226.42 1914.48C9248.62 1902.41 9265.75 1885.36 9277.83 1863.35C9290.08 1841.15 9296.2 1815.05 9296.2 1785.04L9317.51 1789.04H9161.44V1721.12H9375.84V1783.18C9375.84 1828.99 9366.07 1868.76 9346.54 1902.5C9327.19 1936.06 9300.38 1961.98 9266.11 1980.27C9232.02 1998.56 9192.96 2007.7 9148.92 2007.7C9099.56 2007.7 9056.24 1996.34 9018.95 1973.61C8981.84 1950.88 8952.9 1918.65 8932.12 1876.93C8911.35 1835.03 8900.96 1785.31 8900.96 1727.78C8900.96 1684.28 8907 1645.22 8919.07 1610.59C8931.15 1575.97 8948.1 1546.58 8969.94 1522.44C8991.96 1498.11 9017.8 1479.56 9047.45 1466.77C9077.28 1453.81 9109.86 1447.33 9145.19 1447.33C9174.67 1447.33 9202.1 1451.68 9227.49 1460.38C9253.06 1469.08 9275.79 1481.42 9295.67 1497.4C9315.74 1513.38 9332.34 1532.38 9345.48 1554.4C9358.62 1576.24 9367.49 1600.47 9372.11 1627.11H9287.68ZM9480.31 2000.24V1454.79H9822.28V1525.63H9562.61V1691.83H9804.44V1762.4H9562.61V1929.4H9825.48V2000.24H9480.31ZM9932.21 2000.24V1454.79H10126.6C10168.9 1454.79 10204 1462.07 10231.8 1476.63C10259.9 1491.19 10280.8 1511.34 10294.7 1537.08C10308.5 1562.65 10315.5 1592.22 10315.5 1625.77C10315.5 1659.16 10308.5 1688.54 10294.4 1713.93C10280.6 1739.14 10259.6 1758.76 10231.6 1772.79C10203.7 1786.82 10168.6 1793.83 10126.4 1793.83H9979.09V1722.99H10118.9C10145.5 1722.99 10167.2 1719.17 10183.9 1711.53C10200.8 1703.9 10213.1 1692.8 10220.9 1678.24C10228.7 1663.68 10232.6 1646.19 10232.6 1625.77C10232.6 1605.18 10228.6 1587.33 10220.7 1572.24C10212.8 1557.15 10200.5 1545.61 10183.6 1537.62C10166.9 1529.45 10145 1525.37 10117.8 1525.37H10014.5V2000.24H9932.21ZM10201.5 1754.15L10336.2 2000.24H10242.5L10110.4 1754.15H10201.5Z" fill="#6BE4FF"/>
</svg>
